 <svg  version="1.0" xmlns="http://www.w3.org/2000/svg"  width="300.000000pt" height="200.000000pt" viewBox="0 0 300.000000 200.000000"  preserveAspectRatio="xMidYMid meet">  <g transform="translate(0.000000,200.000000) scale(0.100000,-0.100000)" fill="#ab7fe1" stroke="none"> <path d="M1260 1673 c-19 -10 -45 -33 -57 -52 -22 -33 -23 -43 -23 -238 0 -190 -1 -204 -17 -199 -120 34 -201 29 -283 -16 -77 -43 -114 -82 -147 -152 -36 -80 -39 -195 -5 -268 26 -59 92 -131 151 -166 67 -39 205 -43 292 -8 13 6 16 -2 18 -46 3 -78 17 -120 52 -156 17 -17 49 -37 70 -42 26 -7 166 -10 392 -8 348 3 352 3 396 27 50 26 72 48 104 106 22 40 22 40 22 585 0 595 1 580 -58 624 -28 20 -40 21 -450 24 -387 2 -425 1 -457 -15z m889 -29 c50 -36 51 -46 51 -592 0 -577 -1 -583 -69 -645 -22 -20 -58 -41 -81 -47 -27 -7 -159 -10 -393 -8 -386 3 -377 2 -418 65 -25 38 -27 168 -2 195 9 10 19 18 22 18 4 0 6 -41 6 -91 0 -87 1 -92 28 -115 l29 -25 366 3 367 3 34 24 c62 44 61 37 61 616 0 344 -4 533 -10 546 -10 18 -26 19 -433 19 -316 0 -426 -3 -435 -12 -9 -9 -12 -77 -12 -245 l0 -233 -25 16 -25 16 0 217 c1 231 4 251 51 277 19 10 115 13 444 14 373 0 423 -2 444 -16z m-32 -79 c9 -24 0 -25 -27 -5 l-25 20 23 0 c12 0 25 -7 29 -15z m-43 -31 c24 -23 24 -465 0 -488 -13 -14 -61 -16 -374 -16 l-359 0 -15 22 c-13 19 -16 59 -16 240 0 205 1 219 20 238 19 19 33 20 374 20 309 0 357 -2 370 -16z m-919 -383 c52 -23 116 -85 147 -143 33 -62 33 -204 0 -265 -118 -222 -425 -222 -539 1 -64 125 -24 294 88 372 94 65 206 78 304 35z m965 -362 c0 -285 -4 -312 -57 -340 -35 -19 -735 -21 -754 -2 -7 7 -13 41 -15 77 -1 36 -5 79 -9 96 -5 24 -1 40 17 68 14 20 27 45 31 54 6 17 9 17 39 2 18 -8 40 -30 48 -47 12 -26 22 -33 52 -35 46 -4 76 11 84 43 4 15 16 28 30 31 32 8 54 41 54 80 0 33 -20 57 -57 68 -13 4 -23 15 -23 24 0 28 -41 62 -75 62 -32 0 -66 -27 -78 -62 -4 -10 -15 -18 -25 -18 -15 0 -21 10 -26 39 -3 22 -9 47 -12 56 -6 16 2 17 82 14 49 -1 213 -2 365 -1 l277 2 23 25 c13 13 25 25 26 25 1 0 2 -117 3 -261z m-592 105 c3 -41 4 -41 40 -40 37 1 37 1 37 -39 0 -39 -1 -40 -37 -43 -35 -3 -37 -5 -40 -40 -3 -36 -4 -37 -45 -40 l-43 -3 0 40 c0 39 -1 40 -37 43 -37 3 -38 4 -38 43 0 40 0 40 38 39 36 -1 37 -1 37 36 0 46 6 52 50 48 33 -3 35 -5 38 -44z"/> <path d="M1360 1285 l0 -215 343 2 342 3 3 213 2 212 -345 0 -345 0 0 -215z m649 180 c3 -4 6 -86 6 -183 l0 -177 -310 0 -310 0 -3 182 -2 182 142 3 c203 4 469 0 477 -7z"/> <path d="M1511 1384 c-12 -15 -21 -33 -21 -41 0 -23 47 -63 74 -63 25 0 66 41 66 65 0 27 -41 65 -70 65 -19 0 -36 -9 -49 -26z m70 -4 c41 -22 8 -91 -35 -74 -26 10 -32 55 -11 71 22 16 21 16 46 3z"/> <path d="M1796 1385 c-21 -33 -20 -57 4 -83 27 -28 61 -28 88 1 27 29 28 57 2 85 -28 30 -73 29 -94 -3z m81 -21 c12 -19 11 -24 -5 -44 -34 -42 -86 5 -56 49 19 26 41 24 61 -5z"/> <path d="M1761 1269 c-28 -23 -79 -25 -107 -4 -25 19 -40 19 -68 -2 -22 -17 -23 -19 -8 -49 18 -38 77 -74 121 -74 68 0 158 71 135 108 -6 8 -19 21 -30 28 -16 11 -23 10 -43 -7z m-125 -24 c7 -18 66 -37 90 -29 10 4 29 16 42 27 25 23 50 12 39 -17 -9 -23 -68 -56 -100 -56 -58 0 -130 52 -112 80 9 15 35 12 41 -5z"/> <path d="M960 1121 c-111 -34 -179 -128 -180 -247 0 -139 115 -254 256 -254 90 0 195 72 231 159 20 48 20 146 -1 196 -48 113 -190 181 -306 146z m141 -33 c98 -29 163 -132 148 -232 -13 -82 -17 -91 -51 -128 -49 -53 -93 -72 -168 -72 -54 0 -72 5 -110 29 -53 33 -64 46 -90 100 -27 56 -25 128 4 191 46 99 157 146 267 112z"/> <path d="M922 1027 c-20 -21 -22 -33 -22 -146 0 -131 7 -157 46 -171 26 -10 54 2 156 66 97 62 118 99 79 141 -25 27 -178 119 -211 128 -19 4 -31 0 -48 -18z m148 -68 c98 -61 114 -76 102 -96 -14 -22 -202 -134 -219 -131 -16 3 -18 18 -21 133 -1 71 0 135 2 142 9 23 37 14 136 -48z"/> <path d="M1973 935 c-34 -14 -53 -41 -53 -74 0 -17 -6 -21 -34 -21 -52 0 -81 -15 -98 -50 -40 -82 40 -158 126 -119 23 11 56 62 56 88 0 6 12 8 30 5 39 -8 97 34 102 74 5 38 -17 79 -52 97 -35 18 -36 18 -77 0z m86 -41 c12 -15 21 -32 21 -39 0 -7 -9 -24 -21 -39 -38 -48 -111 -23 -111 39 0 62 73 87 111 39z m-166 -85 c37 -17 50 -53 32 -88 -26 -51 -95 -48 -115 5 -16 41 6 77 57 93 1 1 13 -4 26 -10z"/> <path d="M1566 566 c-39 -37 -44 -56 -20 -80 22 -22 45 -20 86 8 l36 24 11 -24 c14 -31 47 -31 92 -1 45 30 60 72 33 92 -27 20 -57 18 -84 -5 -13 -11 -25 -20 -27 -20 -2 0 -13 9 -25 20 -31 29 -62 25 -102 -14z m87 -1 c8 -18 -68 -79 -88 -71 -23 9 -18 22 22 55 41 34 58 38 66 16z m143 3 c8 -13 -60 -78 -82 -78 -28 0 -21 30 14 59 40 33 57 38 68 19z"/> </g> </svg> 